<?xml version="1.0" encoding="UTF-8"?>
<svg id="Camada_1" data-name="Camada 1" xmlns="http://www.w3.org/2000/svg" width="841.889831543" height="595.2755737305" viewBox="0 0 841.889831543 595.2755737305">
  <defs>
    <style>
      .cls-1 {
        fill: #1d1d1b;
      }
    </style>
  </defs>
  <path class="cls-1" d="M235.4574701513,449.4222657563h-45.5832373014c-27.4757130063,0-49.7435745319-22.2721687387-49.7435745319-49.7431438105v-254.0079919122h45.5832373014c27.4714057931,0,49.7435745319,22.2721687387,49.7435745319,49.7431438105v254.0079919122Z"/>
  <path class="cls-1" d="M359.3527349799,145.6711300336h36.9688109003v254.0079919122c0,27.4709750718-22.2721687387,49.7431438105-49.7496046303,49.7431438105h-45.5789300882v-245.3935655111c0-32.2304456584,26.1292781598-58.3575702116,58.3597238182-58.3575702116"/>
  <path class="cls-1" d="M627.6891023251,310.8721387341c29.4566003573-12.5094392984,48.6939066749-40.2793349663,48.6939066749-79.9862412982,0-40.8681310108-23.767633162-85.2147674024-91.0088305997-85.2147674024h-126.6316373749v165.2010087006c97.6759659129,2.6118940848,122.4424418161,85.2186438942,122.4424418161,85.2186438942,24.3478147801,53.3607721777,54.9462573568,53.3314831279,93.2925150387,53.3314831279h26.8296310262l-73.6180265812-138.5501270222Z"/>
</svg>